<svg width="449" height="15" viewBox="0 0 449 15" fill="none" xmlns="http://www.w3.org/2000/svg">
<path d="M6.62383 2.642C5.98783 2.642 5.41783 2.756 4.91383 2.984C4.40983 3.2 3.97783 3.524 3.61783 3.956C3.26983 4.388 2.99983 4.91 2.80783 5.522C2.62783 6.134 2.53783 6.824 2.53783 7.592C2.53783 8.6 2.68783 9.476 2.98783 10.22C3.28783 10.952 3.73783 11.516 4.33783 11.912C4.93783 12.308 5.69383 12.506 6.60583 12.506C7.15783 12.506 7.68583 12.458 8.18983 12.362C8.70583 12.254 9.22783 12.116 9.75583 11.948V13.622C9.25183 13.814 8.73583 13.952 8.20783 14.036C7.67983 14.132 7.06783 14.18 6.37183 14.18C5.06383 14.18 3.97183 13.91 3.09583 13.37C2.23183 12.83 1.58383 12.062 1.15183 11.066C0.719828 10.07 0.503828 8.906 0.503828 7.574C0.503828 6.602 0.635828 5.714 0.899828 4.91C1.17583 4.094 1.57183 3.392 2.08783 2.804C2.60383 2.216 3.23983 1.766 3.99583 1.454C4.76383 1.13 5.64583 0.967999 6.64183 0.967999C7.28983 0.967999 7.92583 1.04 8.54983 1.184C9.17383 1.316 9.73783 1.508 10.2418 1.76L9.52183 3.38C9.10183 3.188 8.64583 3.02 8.15383 2.876C7.67383 2.72 7.16383 2.642 6.62383 2.642ZM24.0129 7.556C24.0129 8.552 23.8869 9.458 23.6349 10.274C23.3949 11.078 23.0229 11.774 22.5189 12.362C22.0269 12.95 21.4029 13.4 20.6469 13.712C19.9029 14.024 19.0329 14.18 18.0369 14.18C17.0169 14.18 16.1289 14.024 15.3729 13.712C14.6289 13.388 14.0049 12.938 13.5009 12.362C13.0089 11.774 12.6429 11.072 12.4029 10.256C12.1629 9.44 12.0429 8.534 12.0429 7.538C12.0429 6.218 12.2589 5.066 12.6909 4.082C13.1229 3.098 13.7829 2.33 14.6709 1.778C15.5709 1.226 16.6989 0.95 18.0549 0.95C19.3749 0.95 20.4729 1.226 21.3489 1.778C22.2369 2.318 22.9029 3.086 23.3469 4.082C23.7909 5.066 24.0129 6.224 24.0129 7.556ZM14.0949 7.556C14.0949 8.588 14.2329 9.476 14.5089 10.22C14.7849 10.952 15.2169 11.522 15.8049 11.93C16.3929 12.326 17.1369 12.524 18.0369 12.524C18.9489 12.524 19.6929 12.326 20.2689 11.93C20.8449 11.522 21.2709 10.952 21.5469 10.22C21.8229 9.476 21.9609 8.588 21.9609 7.556C21.9609 6.008 21.6489 4.802 21.0249 3.938C20.4129 3.062 19.4229 2.624 18.0549 2.624C17.1429 2.624 16.3929 2.822 15.8049 3.218C15.2169 3.614 14.7849 4.178 14.5089 4.91C14.2329 5.642 14.0949 6.524 14.0949 7.556ZM30.9057 1.148C32.5857 1.148 33.8097 1.49 34.5777 2.174C35.3457 2.846 35.7297 3.788 35.7297 5C35.7297 5.54 35.6397 6.056 35.4597 6.548C35.2917 7.04 35.0097 7.484 34.6137 7.88C34.2177 8.264 33.6897 8.57 33.0297 8.798C32.3817 9.014 31.5837 9.122 30.6357 9.122H29.2497V14H27.3057V1.148H30.9057ZM30.7617 2.786H29.2497V7.484H30.4197C31.1517 7.484 31.7637 7.406 32.2557 7.25C32.7477 7.082 33.1137 6.824 33.3537 6.476C33.6057 6.116 33.7317 5.648 33.7317 5.072C33.7317 4.304 33.4917 3.734 33.0117 3.362C32.5437 2.978 31.7937 2.786 30.7617 2.786ZM42.3732 7.16L45.5232 1.148H47.6112L43.3272 9.014V14H41.4012V9.086L37.1172 1.148H39.2232L42.3732 7.16ZM53.4213 1.148C54.5253 1.148 55.4313 1.286 56.1393 1.562C56.8473 1.838 57.3753 2.252 57.7233 2.804C58.0713 3.344 58.2453 4.028 58.2453 4.856C58.2453 5.516 58.1193 6.074 57.8673 6.53C57.6273 6.974 57.3153 7.34 56.9313 7.628C56.5473 7.904 56.1453 8.126 55.7253 8.294L59.3253 14H57.0933L53.9973 8.798H51.7653V14H49.8213V1.148H53.4213ZM53.2953 2.804H51.7653V7.178H53.3853C54.0453 7.178 54.5853 7.094 55.0053 6.926C55.4373 6.758 55.7493 6.506 55.9413 6.17C56.1453 5.834 56.2473 5.42 56.2473 4.928C56.2473 4.412 56.1393 4.004 55.9233 3.704C55.7193 3.392 55.3953 3.164 54.9513 3.02C54.5193 2.876 53.9673 2.804 53.2953 2.804ZM65.672 14H60.686V12.884L62.216 12.434V2.732L60.686 2.264V1.148H65.672V2.264L64.16 2.732V12.434L65.672 12.884V14ZM73.9392 7.088H78.5832V13.496C77.8992 13.724 77.1972 13.892 76.4772 14C75.7692 14.12 74.9592 14.18 74.0472 14.18C72.7392 14.18 71.6292 13.916 70.7172 13.388C69.8172 12.86 69.1272 12.104 68.6472 11.12C68.1792 10.136 67.9452 8.954 67.9452 7.574C67.9452 6.23 68.2092 5.066 68.7372 4.082C69.2652 3.098 70.0212 2.336 71.0052 1.796C72.0012 1.244 73.2072 0.967999 74.6232 0.967999C75.3312 0.967999 76.0092 1.04 76.6572 1.184C77.3052 1.316 77.9052 1.502 78.4572 1.742L77.7552 3.362C77.3112 3.158 76.8132 2.99 76.2612 2.858C75.7212 2.714 75.1512 2.642 74.5512 2.642C73.6032 2.642 72.7812 2.846 72.0852 3.254C71.4012 3.65 70.8732 4.22 70.5012 4.964C70.1412 5.696 69.9612 6.572 69.9612 7.592C69.9612 8.552 70.1112 9.404 70.4112 10.148C70.7112 10.892 71.1852 11.474 71.8332 11.894C72.4812 12.314 73.3272 12.524 74.3712 12.524C74.7192 12.524 75.0252 12.512 75.2892 12.488C75.5532 12.452 75.7932 12.416 76.0092 12.38C76.2372 12.332 76.4532 12.29 76.6572 12.254V8.762H73.9392V7.088ZM92.1794 14H90.2354V8.132H84.0974V14H82.1534V1.148H84.0974V6.476H90.2354V1.148H92.1794V14ZM100.438 14H98.4942V2.822H94.6422V1.148H104.29V2.822H100.438V14ZM117.985 11.624C116.785 11.624 115.885 11.258 115.285 10.526C114.697 9.782 114.403 8.798 114.403 7.574C114.403 6.782 114.541 6.086 114.817 5.486C115.105 4.874 115.519 4.394 116.059 4.046C116.599 3.698 117.265 3.524 118.057 3.524C118.429 3.524 118.807 3.572 119.191 3.668C119.575 3.764 119.935 3.896 120.271 4.064L119.749 5.198C119.449 5.042 119.155 4.928 118.867 4.856C118.591 4.772 118.327 4.73 118.075 4.73C117.367 4.73 116.815 4.982 116.419 5.486C116.035 5.99 115.843 6.686 115.843 7.574C115.843 8.186 115.915 8.708 116.059 9.14C116.215 9.56 116.455 9.884 116.779 10.112C117.103 10.328 117.529 10.436 118.057 10.436C118.333 10.436 118.639 10.4 118.975 10.328C119.323 10.244 119.647 10.142 119.947 10.022V11.192C119.659 11.312 119.365 11.414 119.065 11.498C118.765 11.582 118.405 11.624 117.985 11.624ZM117.715 14.18C116.755 14.18 115.873 14.018 115.069 13.694C114.265 13.37 113.563 12.914 112.963 12.326C112.375 11.726 111.919 11.024 111.595 10.22C111.271 9.416 111.109 8.534 111.109 7.574C111.109 6.626 111.271 5.75 111.595 4.946C111.919 4.142 112.381 3.446 112.981 2.858C113.581 2.258 114.283 1.796 115.087 1.472C115.891 1.136 116.767 0.967999 117.715 0.967999C118.627 0.967999 119.479 1.13 120.271 1.454C121.075 1.778 121.777 2.24 122.377 2.84C122.989 3.428 123.463 4.124 123.799 4.928C124.147 5.732 124.321 6.614 124.321 7.574C124.321 8.534 124.159 9.416 123.835 10.22C123.511 11.024 123.049 11.726 122.449 12.326C121.861 12.914 121.165 13.37 120.361 13.694C119.557 14.018 118.675 14.18 117.715 14.18ZM117.715 13.172C118.471 13.172 119.179 13.034 119.839 12.758C120.511 12.482 121.099 12.092 121.603 11.588C122.119 11.084 122.515 10.496 122.791 9.824C123.079 9.14 123.223 8.39 123.223 7.574C123.223 6.806 123.085 6.086 122.809 5.414C122.533 4.73 122.149 4.13 121.657 3.614C121.165 3.098 120.583 2.696 119.911 2.408C119.251 2.12 118.519 1.976 117.715 1.976C116.911 1.976 116.173 2.114 115.501 2.39C114.829 2.666 114.241 3.056 113.737 3.56C113.245 4.052 112.861 4.64 112.585 5.324C112.321 6.008 112.189 6.758 112.189 7.574C112.189 8.354 112.321 9.086 112.585 9.77C112.861 10.442 113.245 11.036 113.737 11.552C114.229 12.056 114.811 12.452 115.483 12.74C116.167 13.028 116.911 13.172 117.715 13.172ZM137.409 14H135.465V2.822H131.613V1.148H141.261V2.822H137.409V14ZM150.967 14H143.731V1.148H150.967V2.804H145.675V6.476H150.643V8.114H145.675V12.326H150.967V14ZM162.261 14L160.893 10.292H155.925L154.557 14H152.541L157.419 1.094H159.435L164.295 14H162.261ZM159.057 4.982C159.021 4.85 158.955 4.652 158.859 4.388C158.775 4.112 158.691 3.836 158.607 3.56C158.523 3.272 158.457 3.038 158.409 2.858C158.349 3.098 158.277 3.362 158.193 3.65C158.121 3.926 158.049 4.184 157.977 4.424C157.905 4.652 157.845 4.838 157.797 4.982L156.501 8.6H160.353L159.057 4.982ZM171.667 2.642C171.031 2.642 170.461 2.756 169.957 2.984C169.453 3.2 169.021 3.524 168.661 3.956C168.313 4.388 168.043 4.91 167.851 5.522C167.671 6.134 167.581 6.824 167.581 7.592C167.581 8.6 167.731 9.476 168.031 10.22C168.331 10.952 168.781 11.516 169.381 11.912C169.981 12.308 170.737 12.506 171.649 12.506C172.201 12.506 172.729 12.458 173.233 12.362C173.749 12.254 174.271 12.116 174.799 11.948V13.622C174.295 13.814 173.779 13.952 173.251 14.036C172.723 14.132 172.111 14.18 171.415 14.18C170.107 14.18 169.015 13.91 168.139 13.37C167.275 12.83 166.627 12.062 166.195 11.066C165.763 10.07 165.547 8.906 165.547 7.574C165.547 6.602 165.679 5.714 165.943 4.91C166.219 4.094 166.615 3.392 167.131 2.804C167.647 2.216 168.283 1.766 169.039 1.454C169.807 1.13 170.689 0.967999 171.685 0.967999C172.333 0.967999 172.969 1.04 173.593 1.184C174.217 1.316 174.781 1.508 175.285 1.76L174.565 3.38C174.145 3.188 173.689 3.02 173.197 2.876C172.717 2.72 172.207 2.642 171.667 2.642ZM188.093 14H186.149V8.132H180.011V14H178.067V1.148H180.011V6.476H186.149V1.148H188.093V14ZM199.268 14H192.032V1.148H199.268V2.804H193.976V6.476H198.944V8.114H193.976V12.326H199.268V14ZM206.152 1.148C207.256 1.148 208.162 1.286 208.87 1.562C209.578 1.838 210.106 2.252 210.454 2.804C210.802 3.344 210.976 4.028 210.976 4.856C210.976 5.516 210.85 6.074 210.598 6.53C210.358 6.974 210.046 7.34 209.662 7.628C209.278 7.904 208.876 8.126 208.456 8.294L212.056 14H209.824L206.728 8.798H204.496V14H202.552V1.148H206.152ZM206.026 2.804H204.496V7.178H206.116C206.776 7.178 207.316 7.094 207.736 6.926C208.168 6.758 208.48 6.506 208.672 6.17C208.876 5.834 208.978 5.42 208.978 4.928C208.978 4.412 208.87 4.004 208.654 3.704C208.45 3.392 208.126 3.164 207.682 3.02C207.25 2.876 206.698 2.804 206.026 2.804ZM216.368 14H214.442V1.148H221.678V2.804H216.368V6.998H221.336V8.654H216.368V14ZM228.412 14H223.426V12.884L224.956 12.434V2.732L223.426 2.264V1.148H228.412V2.264L226.9 2.732V12.434L228.412 12.884V14ZM235.635 14H233.691V2.822H229.839V1.148H239.487V2.822H235.635V14ZM240.4 12.938C240.4 12.47 240.52 12.14 240.76 11.948C241 11.756 241.288 11.66 241.624 11.66C241.972 11.66 242.266 11.756 242.506 11.948C242.746 12.14 242.866 12.47 242.866 12.938C242.866 13.406 242.746 13.742 242.506 13.946C242.266 14.15 241.972 14.252 241.624 14.252C241.288 14.252 241 14.15 240.76 13.946C240.52 13.742 240.4 13.406 240.4 12.938ZM254.318 14L252.95 10.292H247.982L246.614 14H244.598L249.476 1.094H251.492L256.352 14H254.318ZM251.114 4.982C251.078 4.85 251.012 4.652 250.916 4.388C250.832 4.112 250.748 3.836 250.664 3.56C250.58 3.272 250.514 3.038 250.466 2.858C250.406 3.098 250.334 3.362 250.25 3.65C250.178 3.926 250.106 4.184 250.034 4.424C249.962 4.652 249.902 4.838 249.854 4.982L248.558 8.6H252.41L251.114 4.982ZM258.585 14V1.148H260.529V12.326H266.019V14H258.585ZM268.735 14V1.148H270.679V12.326H276.169V14H268.735ZM287.662 1.148C288.766 1.148 289.672 1.286 290.38 1.562C291.088 1.838 291.616 2.252 291.964 2.804C292.312 3.344 292.486 4.028 292.486 4.856C292.486 5.516 292.36 6.074 292.108 6.53C291.868 6.974 291.556 7.34 291.172 7.628C290.788 7.904 290.386 8.126 289.966 8.294L293.566 14H291.334L288.238 8.798H286.006V14H284.062V1.148H287.662ZM287.536 2.804H286.006V7.178H287.626C288.286 7.178 288.826 7.094 289.246 6.926C289.678 6.758 289.99 6.506 290.182 6.17C290.386 5.834 290.488 5.42 290.488 4.928C290.488 4.412 290.38 4.004 290.164 3.704C289.96 3.392 289.636 3.164 289.192 3.02C288.76 2.876 288.208 2.804 287.536 2.804ZM299.912 14H294.926V12.884L296.456 12.434V2.732L294.926 2.264V1.148H299.912V2.264L298.4 2.732V12.434L299.912 12.884V14ZM308.179 7.088H312.823V13.496C312.139 13.724 311.437 13.892 310.717 14C310.009 14.12 309.199 14.18 308.287 14.18C306.979 14.18 305.869 13.916 304.957 13.388C304.057 12.86 303.367 12.104 302.887 11.12C302.419 10.136 302.185 8.954 302.185 7.574C302.185 6.23 302.449 5.066 302.977 4.082C303.505 3.098 304.261 2.336 305.245 1.796C306.241 1.244 307.447 0.967999 308.863 0.967999C309.571 0.967999 310.249 1.04 310.897 1.184C311.545 1.316 312.145 1.502 312.697 1.742L311.995 3.362C311.551 3.158 311.053 2.99 310.501 2.858C309.961 2.714 309.391 2.642 308.791 2.642C307.843 2.642 307.021 2.846 306.325 3.254C305.641 3.65 305.113 4.22 304.741 4.964C304.381 5.696 304.201 6.572 304.201 7.592C304.201 8.552 304.351 9.404 304.651 10.148C304.951 10.892 305.425 11.474 306.073 11.894C306.721 12.314 307.567 12.524 308.611 12.524C308.959 12.524 309.265 12.512 309.529 12.488C309.793 12.452 310.033 12.416 310.249 12.38C310.477 12.332 310.693 12.29 310.897 12.254V8.762H308.179V7.088ZM326.42 14H324.476V8.132H318.338V14H316.394V1.148H318.338V6.476H324.476V1.148H326.42V14ZM334.678 14H332.734V2.822H328.882V1.148H338.53V2.822H334.678V14ZM348.381 10.526C348.381 11.294 348.195 11.948 347.823 12.488C347.451 13.028 346.917 13.448 346.221 13.748C345.525 14.036 344.697 14.18 343.737 14.18C343.269 14.18 342.819 14.15 342.387 14.09C341.955 14.042 341.553 13.97 341.181 13.874C340.809 13.778 340.479 13.658 340.191 13.514V11.678C340.671 11.894 341.235 12.092 341.883 12.272C342.531 12.44 343.191 12.524 343.863 12.524C344.439 12.524 344.919 12.446 345.303 12.29C345.687 12.134 345.975 11.918 346.167 11.642C346.359 11.366 346.455 11.042 346.455 10.67C346.455 10.274 346.353 9.944 346.149 9.68C345.957 9.404 345.651 9.152 345.231 8.924C344.823 8.684 344.271 8.432 343.575 8.168C343.095 7.988 342.657 7.79 342.261 7.574C341.877 7.346 341.535 7.082 341.235 6.782C340.947 6.482 340.725 6.134 340.569 5.738C340.413 5.342 340.335 4.88 340.335 4.352C340.335 3.644 340.509 3.038 340.857 2.534C341.217 2.03 341.709 1.646 342.333 1.382C342.957 1.106 343.683 0.967999 344.511 0.967999C345.207 0.967999 345.849 1.04 346.437 1.184C347.037 1.316 347.607 1.502 348.147 1.742L347.535 3.344C347.043 3.14 346.545 2.972 346.041 2.84C345.537 2.708 345.009 2.642 344.457 2.642C343.977 2.642 343.575 2.714 343.251 2.858C342.927 3.002 342.681 3.2 342.513 3.452C342.357 3.704 342.279 3.998 342.279 4.334C342.279 4.73 342.369 5.06 342.549 5.324C342.729 5.588 343.017 5.834 343.413 6.062C343.809 6.278 344.331 6.518 344.979 6.782C345.699 7.058 346.311 7.358 346.815 7.682C347.331 8.006 347.721 8.396 347.985 8.852C348.249 9.296 348.381 9.854 348.381 10.526ZM360.173 1.148C361.277 1.148 362.183 1.286 362.891 1.562C363.599 1.838 364.127 2.252 364.475 2.804C364.823 3.344 364.997 4.028 364.997 4.856C364.997 5.516 364.871 6.074 364.619 6.53C364.379 6.974 364.067 7.34 363.683 7.628C363.299 7.904 362.897 8.126 362.477 8.294L366.077 14H363.845L360.749 8.798H358.517V14H356.573V1.148H360.173ZM360.047 2.804H358.517V7.178H360.137C360.797 7.178 361.337 7.094 361.757 6.926C362.189 6.758 362.501 6.506 362.693 6.17C362.897 5.834 362.999 5.42 362.999 4.928C362.999 4.412 362.891 4.004 362.675 3.704C362.471 3.392 362.147 3.164 361.703 3.02C361.271 2.876 360.719 2.804 360.047 2.804ZM375.7 14H368.464V1.148H375.7V2.804H370.408V6.476H375.376V8.114H370.408V12.326H375.7V14ZM386.363 10.526C386.363 11.294 386.177 11.948 385.805 12.488C385.433 13.028 384.899 13.448 384.203 13.748C383.507 14.036 382.679 14.18 381.719 14.18C381.251 14.18 380.801 14.15 380.369 14.09C379.937 14.042 379.535 13.97 379.163 13.874C378.791 13.778 378.461 13.658 378.173 13.514V11.678C378.653 11.894 379.217 12.092 379.865 12.272C380.513 12.44 381.173 12.524 381.845 12.524C382.421 12.524 382.901 12.446 383.285 12.29C383.669 12.134 383.957 11.918 384.149 11.642C384.341 11.366 384.437 11.042 384.437 10.67C384.437 10.274 384.335 9.944 384.131 9.68C383.939 9.404 383.633 9.152 383.213 8.924C382.805 8.684 382.253 8.432 381.557 8.168C381.077 7.988 380.639 7.79 380.243 7.574C379.859 7.346 379.517 7.082 379.217 6.782C378.929 6.482 378.707 6.134 378.551 5.738C378.395 5.342 378.317 4.88 378.317 4.352C378.317 3.644 378.491 3.038 378.839 2.534C379.199 2.03 379.691 1.646 380.315 1.382C380.939 1.106 381.665 0.967999 382.493 0.967999C383.189 0.967999 383.831 1.04 384.419 1.184C385.019 1.316 385.589 1.502 386.129 1.742L385.517 3.344C385.025 3.14 384.527 2.972 384.023 2.84C383.519 2.708 382.991 2.642 382.439 2.642C381.959 2.642 381.557 2.714 381.233 2.858C380.909 3.002 380.663 3.2 380.495 3.452C380.339 3.704 380.261 3.998 380.261 4.334C380.261 4.73 380.351 5.06 380.531 5.324C380.711 5.588 380.999 5.834 381.395 6.062C381.791 6.278 382.313 6.518 382.961 6.782C383.681 7.058 384.293 7.358 384.797 7.682C385.313 8.006 385.703 8.396 385.967 8.852C386.231 9.296 386.363 9.854 386.363 10.526ZM396.616 14H389.38V1.148H396.616V2.804H391.324V6.476H396.292V8.114H391.324V12.326H396.616V14ZM403.499 1.148C404.603 1.148 405.509 1.286 406.217 1.562C406.925 1.838 407.453 2.252 407.801 2.804C408.149 3.344 408.323 4.028 408.323 4.856C408.323 5.516 408.197 6.074 407.945 6.53C407.705 6.974 407.393 7.34 407.009 7.628C406.625 7.904 406.223 8.126 405.803 8.294L409.403 14H407.171L404.075 8.798H401.843V14H399.899V1.148H403.499ZM403.373 2.804H401.843V7.178H403.463C404.123 7.178 404.663 7.094 405.083 6.926C405.515 6.758 405.827 6.506 406.019 6.17C406.223 5.834 406.325 5.42 406.325 4.928C406.325 4.412 406.217 4.004 406.001 3.704C405.797 3.392 405.473 3.164 405.029 3.02C404.597 2.876 404.045 2.804 403.373 2.804ZM421.15 1.148L416.614 14H414.598L410.08 1.148H412.078L414.832 9.212C414.94 9.5 415.042 9.812 415.138 10.148C415.234 10.472 415.324 10.796 415.408 11.12C415.492 11.444 415.558 11.75 415.606 12.038C415.666 11.75 415.732 11.444 415.804 11.12C415.888 10.796 415.978 10.466 416.074 10.13C416.182 9.794 416.284 9.482 416.38 9.194L419.134 1.148H421.15ZM430.6 14H423.364V1.148H430.6V2.804H425.308V6.476H430.276V8.114H425.308V12.326H430.6V14ZM444.288 7.448C444.288 8.888 444.018 10.094 443.478 11.066C442.938 12.038 442.158 12.77 441.138 13.262C440.13 13.754 438.912 14 437.484 14H433.884V1.148H437.862C439.17 1.148 440.304 1.388 441.264 1.868C442.224 2.348 442.968 3.056 443.496 3.992C444.024 4.916 444.288 6.068 444.288 7.448ZM442.254 7.502C442.254 6.422 442.08 5.534 441.732 4.838C441.384 4.142 440.868 3.626 440.184 3.29C439.512 2.954 438.696 2.786 437.736 2.786H435.828V12.362H437.394C439.014 12.362 440.226 11.954 441.03 11.138C441.846 10.322 442.254 9.11 442.254 7.502ZM446.378 12.938C446.378 12.47 446.498 12.14 446.738 11.948C446.978 11.756 447.266 11.66 447.602 11.66C447.95 11.66 448.244 11.756 448.484 11.948C448.724 12.14 448.844 12.47 448.844 12.938C448.844 13.406 448.724 13.742 448.484 13.946C448.244 14.15 447.95 14.252 447.602 14.252C447.266 14.252 446.978 14.15 446.738 13.946C446.498 13.742 446.378 13.406 446.378 12.938Z" fill="#49454F"/>
</svg>
