<svg width="120" height="16" viewBox="0 0 120 16" fill="none" xmlns="http://www.w3.org/2000/svg">
<path d="M6.99492 15H4.83492V2.58H0.554922V0.719999H11.2749V2.58H6.99492V15ZM22.0045 15H13.9645V0.719999H22.0045V2.56H16.1245V6.64H21.6445V8.46H16.1245V13.14H22.0045V15ZM34.4973 15L32.9773 10.88H27.4573L25.9373 15H23.6973L29.1173 0.66H31.3573L36.7573 15H34.4973ZM30.9373 4.98C30.8973 4.83333 30.8239 4.61333 30.7173 4.32C30.6239 4.01333 30.5306 3.70667 30.4373 3.4C30.3439 3.08 30.2706 2.82 30.2173 2.62C30.1506 2.88667 30.0706 3.18 29.9773 3.5C29.8973 3.80667 29.8173 4.09333 29.7373 4.36C29.6573 4.61333 29.5906 4.82 29.5373 4.98L28.0973 9H32.3773L30.9373 4.98ZM44.8926 2.38C44.1859 2.38 43.5526 2.50667 42.9926 2.76C42.4326 3 41.9526 3.36 41.5526 3.84C41.1659 4.32 40.8659 4.9 40.6526 5.58C40.4526 6.26 40.3526 7.02667 40.3526 7.88C40.3526 9 40.5192 9.97333 40.8526 10.8C41.1859 11.6133 41.6859 12.24 42.3526 12.68C43.0192 13.12 43.8592 13.34 44.8726 13.34C45.4859 13.34 46.0726 13.2867 46.6326 13.18C47.2059 13.06 47.7859 12.9067 48.3726 12.72V14.58C47.8126 14.7933 47.2392 14.9467 46.6526 15.04C46.0659 15.1467 45.3859 15.2 44.6126 15.2C43.1592 15.2 41.9459 14.9 40.9726 14.3C40.0126 13.7 39.2926 12.8467 38.8126 11.74C38.3326 10.6333 38.0926 9.34 38.0926 7.86C38.0926 6.78 38.2392 5.79333 38.5326 4.9C38.8392 3.99333 39.2792 3.21333 39.8526 2.56C40.4259 1.90667 41.1326 1.40667 41.9726 1.06C42.8259 0.699999 43.8059 0.519999 44.9126 0.519999C45.6326 0.519999 46.3392 0.599999 47.0326 0.76C47.7259 0.906666 48.3526 1.12 48.9126 1.4L48.1126 3.2C47.6459 2.98667 47.1392 2.8 46.5926 2.64C46.0592 2.46667 45.4926 2.38 44.8926 2.38ZM63.0888 15H60.9288V8.48H54.1088V15H51.9488V0.719999H54.1088V6.64H60.9288V0.719999H63.0888V15ZM75.4498 15H67.4098V0.719999H75.4498V2.56H69.5698V6.64H75.0898V8.46H69.5698V13.14H75.4498V15ZM83.0426 0.719999C84.2692 0.719999 85.2759 0.873332 86.0626 1.18C86.8492 1.48667 87.4359 1.94667 87.8226 2.56C88.2092 3.16 88.4026 3.92 88.4026 4.84C88.4026 5.57333 88.2626 6.19333 87.9826 6.7C87.7159 7.19333 87.3692 7.6 86.9426 7.92C86.5159 8.22667 86.0692 8.47333 85.6026 8.66L89.6026 15H87.1226L83.6826 9.22H81.2026V15H79.0426V0.719999H83.0426ZM82.9026 2.56H81.2026V7.42H83.0026C83.7359 7.42 84.3359 7.32667 84.8026 7.14C85.2826 6.95333 85.6292 6.67333 85.8426 6.3C86.0692 5.92667 86.1826 5.46667 86.1826 4.92C86.1826 4.34667 86.0626 3.89333 85.8226 3.56C85.5959 3.21333 85.2359 2.96 84.7426 2.8C84.2626 2.64 83.6492 2.56 82.9026 2.56ZM94.3388 15H92.1988V0.719999H100.239V2.56H94.3388V7.22H99.8588V9.06H94.3388V15ZM107.665 15H102.125V13.76L103.825 13.26V2.48L102.125 1.96V0.719999H107.665V1.96L105.985 2.48V13.26L107.665 13.76V15ZM115.636 15H113.476V2.58H109.196V0.719999H119.916V2.58H115.636V15Z" fill="#49454F"/>
</svg>
