<svg width="25" height="37" viewBox="0 0 25 37" fill="none" xmlns="http://www.w3.org/2000/svg">
<path fill-rule="evenodd" clip-rule="evenodd" d="M11.1 19.1167H8.63333V0.44991C9.42475 0.217681 10.25 0.0646627 11.1 0V19.1167ZM15.4167 19.1167H12.95V0C13.8 0.0646627 14.6253 0.217681 15.4167 0.44991V19.1167ZM19.7333 19.1167H17.2667V1.16446C18.1555 1.59562 18.9832 2.13302 19.7333 2.76015V19.1167ZM21.7116 19.1167H21.5833V4.69243C23.1307 6.71615 24.05 9.24569 24.05 11.99C24.05 14.6575 23.1814 17.1222 21.7116 19.1167ZM2.46667 19.1167H2.46647V19.2872C0.919192 17.2636 0 14.7341 0 11.99C0 9.24569 0.91927 6.71615 2.46667 4.69243V19.1167ZM6.78333 19.1167H4.31667V2.76015C5.06678 2.13302 5.8945 1.59562 6.78333 1.16446V19.1167Z" fill="white"/>
<path d="M21.5835 19.7334H2.4668L3.08346 21.5834H20.9668L21.5835 19.7334Z" fill="white"/>
<path d="M20.3501 23.4334H3.70013L4.3168 25.2834H19.7335L20.3501 23.4334Z" fill="white"/>
<path d="M4.31641 26.5166C4.31641 26.176 4.5925 25.8999 4.93307 25.8999H5.54974C5.89032 25.8999 6.16641 26.176 6.16641 26.5166V27.1332C6.16641 27.4738 5.89032 27.7499 5.54974 27.7499H4.93307C4.5925 27.7499 4.31641 27.4738 4.31641 27.1332V26.5166Z" fill="white"/>
<path d="M17.8831 26.5166C17.8831 26.176 18.1592 25.8999 18.4997 25.8999H19.1164C19.457 25.8999 19.7331 26.176 19.7331 26.5166V27.1332C19.7331 27.4738 19.457 27.7499 19.1164 27.7499H18.4997C18.1592 27.7499 17.8831 27.4738 17.8831 27.1332V26.5166Z" fill="white"/>
<path d="M11.0997 26.5166C11.0997 26.176 11.3758 25.8999 11.7164 25.8999H12.3331C12.6736 25.8999 12.9497 26.176 12.9497 26.5166V27.1332C12.9497 27.4738 12.6736 27.7499 12.3331 27.7499H11.7164C11.3758 27.7499 11.0997 27.4738 11.0997 27.1332V26.5166Z" fill="white"/>
<path d="M7.70807 26.5166C7.70807 26.176 7.98416 25.8999 8.32474 25.8999H8.94141C9.28198 25.8999 9.55807 26.176 9.55807 26.5166V27.1332C9.55807 27.4738 9.28198 27.7499 8.94141 27.7499H8.32474C7.98416 27.7499 7.70807 27.4738 7.70807 27.1332V26.5166Z" fill="white"/>
<path d="M14.4914 26.5166C14.4914 26.176 14.7675 25.8999 15.1081 25.8999H15.7247C16.0653 25.8999 16.3414 26.176 16.3414 26.5166V27.1332C16.3414 27.4738 16.0653 27.7499 15.7247 27.7499H15.1081C14.7675 27.7499 14.4914 27.4738 14.4914 27.1332V26.5166Z" fill="white"/>
<path d="M4.31641 31.4501C4.31641 30.769 4.86859 30.2168 5.54974 30.2168H18.4997C19.1809 30.2168 19.7331 30.769 19.7331 31.4501V35.7668C19.7331 36.4479 19.1809 37.0001 18.4997 37.0001H5.54974C4.86859 37.0001 4.31641 36.4479 4.31641 35.7668V31.4501Z" fill="white"/>
</svg>