<svg width="271" height="29" viewBox="0 0 271 29" fill="none" xmlns="http://www.w3.org/2000/svg">
<path d="M11.972 22H0.604V2.008H11.972V5.004H4.188V10.1H11.468V13.096H4.188V18.976H11.972V22ZM19.1573 14.244L14.1453 6.824H18.1493L21.4533 11.976L24.7573 6.824H28.7613L23.6933 14.244L29.0133 22H25.0093L21.4533 16.484L17.8973 22H13.8933L19.1573 14.244ZM39.5293 6.544C41.3026 6.544 42.7306 7.20667 43.8133 8.532C44.8959 9.83867 45.4373 11.7893 45.4373 14.384C45.4373 16.1013 45.1853 17.548 44.6813 18.724C44.1773 19.9 43.4773 20.7867 42.5813 21.384C41.6853 21.9813 40.6399 22.28 39.4453 22.28C38.7173 22.28 38.0733 22.1867 37.5132 22C36.9532 21.7947 36.4773 21.5427 36.0853 21.244C35.6933 20.9267 35.3573 20.5907 35.0773 20.236H34.8533C34.9279 20.572 34.9839 20.9547 35.0213 21.384C35.0586 21.7947 35.0773 22.1867 35.0773 22.56V28.72H31.5493V6.824H34.4053L34.9093 8.84H35.0773C35.3573 8.41067 35.6933 8.028 36.0853 7.692C36.4959 7.33733 36.9813 7.05733 37.5413 6.852C38.1199 6.64667 38.7826 6.544 39.5293 6.544ZM38.5213 9.4C37.6999 9.4 37.0373 9.568 36.5333 9.904C36.0293 10.2213 35.6653 10.716 35.4413 11.388C35.2173 12.06 35.0959 12.9 35.0773 13.908V14.356C35.0773 15.4387 35.1799 16.3533 35.3853 17.1C35.6093 17.8467 35.9733 18.416 36.4772 18.808C36.9999 19.2 37.6999 19.396 38.5773 19.396C39.3239 19.396 39.9306 19.1907 40.3973 18.78C40.8826 18.3693 41.2373 17.7907 41.4613 17.044C41.7039 16.2787 41.8253 15.3733 41.8253 14.328C41.8253 12.76 41.5546 11.5467 41.0133 10.688C40.4906 9.82933 39.6599 9.4 38.5213 9.4ZM52.6046 22H49.0766V0.719999H52.6046V22ZM70.6677 14.384C70.6677 15.6533 70.4997 16.7733 70.1637 17.744C69.8277 18.7147 69.3423 19.5453 68.7077 20.236C68.0917 20.908 67.3263 21.4213 66.4117 21.776C65.5157 22.112 64.517 22.28 63.4157 22.28C62.3703 22.28 61.409 22.112 60.5317 21.776C59.6543 21.4213 58.889 20.908 58.2357 20.236C57.601 19.5453 57.1063 18.7147 56.7517 17.744C56.397 16.7733 56.2197 15.6533 56.2197 14.384C56.2197 12.704 56.509 11.2853 57.0877 10.128C57.6663 8.952 58.497 8.06533 59.5797 7.468C60.681 6.852 61.9783 6.544 63.4717 6.544C64.8903 6.544 66.1317 6.852 67.1957 7.468C68.2783 8.06533 69.1277 8.952 69.7437 10.128C70.3597 11.2853 70.6677 12.704 70.6677 14.384ZM59.8317 14.384C59.8317 15.448 59.953 16.3627 60.1957 17.128C60.457 17.8747 60.849 18.444 61.3717 18.836C61.913 19.228 62.6037 19.424 63.4437 19.424C64.3023 19.424 64.993 19.228 65.5157 18.836C66.057 18.444 66.449 17.8747 66.6917 17.128C66.9343 16.3627 67.0557 15.448 67.0557 14.384C67.0557 13.3013 66.925 12.396 66.6637 11.668C66.421 10.9213 66.029 10.3613 65.4877 9.988C64.965 9.596 64.2837 9.4 63.4437 9.4C62.1743 9.4 61.2503 9.82933 60.6717 10.688C60.1117 11.5467 59.8317 12.7787 59.8317 14.384ZM82.2669 6.544C82.4909 6.544 82.7522 6.55333 83.0509 6.572C83.3495 6.59067 83.6015 6.628 83.8069 6.684L83.4989 9.96C83.3309 9.92267 83.1069 9.89467 82.8269 9.876C82.5655 9.83867 82.3322 9.82 82.1269 9.82C81.5669 9.82 81.0255 9.91333 80.5029 10.1C79.9989 10.268 79.5415 10.5293 79.1309 10.884C78.7389 11.22 78.4215 11.6587 78.1789 12.2C77.9549 12.7413 77.8429 13.3853 77.8429 14.132V22H74.3149V6.824H77.0309L77.5349 9.456H77.7029C78.0015 8.91467 78.3749 8.42933 78.8229 8C79.2709 7.552 79.7842 7.19733 80.3629 6.936C80.9602 6.67467 81.5949 6.544 82.2669 6.544ZM92.1767 6.544C93.5394 6.544 94.706 6.824 95.6767 7.384C96.666 7.92533 97.4314 8.70933 97.9727 9.736C98.514 10.744 98.7847 11.976 98.7847 13.432V15.224H88.7607C88.798 16.6053 89.1807 17.6787 89.9087 18.444C90.6367 19.1907 91.6447 19.564 92.9327 19.564C93.922 19.564 94.7994 19.4707 95.5647 19.284C96.3487 19.0787 97.1514 18.7893 97.9727 18.416V21.244C97.226 21.5987 96.4514 21.86 95.6487 22.028C94.846 22.196 93.8847 22.28 92.7647 22.28C91.29 22.28 89.974 22 88.8167 21.44C87.678 20.8613 86.782 19.9933 86.1287 18.836C85.494 17.6787 85.1767 16.2413 85.1767 14.524C85.1767 12.788 85.466 11.332 86.0447 10.156C86.642 8.96133 87.4634 8.06533 88.5087 7.468C89.554 6.852 90.7767 6.544 92.1767 6.544ZM92.1767 9.148C91.2434 9.148 90.478 9.456 89.8807 10.072C89.302 10.6693 88.9567 11.5653 88.8447 12.76H95.3687C95.3687 12.0507 95.2474 11.4253 95.0047 10.884C94.7807 10.3427 94.4354 9.92267 93.9687 9.624C93.502 9.30667 92.9047 9.148 92.1767 9.148ZM117.12 22H113.536V5.032H107.796V2.008H122.86V5.032H117.12V22ZM137.288 22H125.92V2.008H137.288V5.004H129.504V10.1H136.784V13.096H129.504V18.976H137.288V22ZM153.882 22L152.062 16.708H144.53L142.738 22H138.93L146.266 1.924H150.354L157.69 22H153.882ZM149.402 8.476C149.327 8.21467 149.215 7.86 149.066 7.412C148.916 6.964 148.767 6.50667 148.618 6.04C148.487 5.55467 148.384 5.15333 148.31 4.836C148.216 5.20933 148.095 5.63867 147.946 6.124C147.815 6.60933 147.684 7.06667 147.554 7.496C147.442 7.92533 147.348 8.252 147.274 8.476L145.51 13.628H151.138L149.402 8.476ZM168.284 4.752C167.369 4.752 166.557 4.92 165.848 5.256C165.139 5.592 164.532 6.07733 164.028 6.712C163.543 7.34667 163.169 8.112 162.908 9.008C162.665 9.904 162.544 10.912 162.544 12.032C162.544 13.544 162.749 14.8413 163.16 15.924C163.571 16.988 164.196 17.8093 165.036 18.388C165.895 18.9667 166.968 19.256 168.256 19.256C169.115 19.256 169.936 19.172 170.72 19.004C171.523 18.8173 172.363 18.5747 173.24 18.276V21.328C172.419 21.664 171.588 21.9067 170.748 22.056C169.927 22.2053 168.975 22.28 167.892 22.28C165.839 22.28 164.14 21.86 162.796 21.02C161.452 20.1613 160.453 18.9667 159.8 17.436C159.147 15.8867 158.82 14.076 158.82 12.004C158.82 10.492 159.025 9.11067 159.436 7.86C159.865 6.60933 160.472 5.52667 161.256 4.612C162.059 3.69733 163.048 2.988 164.224 2.484C165.4 1.98 166.753 1.728 168.284 1.728C169.292 1.728 170.281 1.84933 171.252 2.092C172.241 2.316 173.165 2.63333 174.024 3.044L172.792 5.984C172.083 5.66667 171.345 5.38667 170.58 5.144C169.833 4.88267 169.068 4.752 168.284 4.752ZM193.505 22H189.921V13.124H181.129V22H177.545V2.008H181.129V10.072H189.921V2.008H193.505V22ZM210.077 22H198.709V2.008H210.077V5.004H202.293V10.1H209.573V13.096H202.293V18.976H210.077V22ZM220.007 2.008C221.761 2.008 223.208 2.22267 224.347 2.652C225.485 3.08133 226.335 3.73467 226.895 4.612C227.455 5.47067 227.735 6.56267 227.735 7.888C227.735 8.85867 227.548 9.68933 227.175 10.38C226.82 11.0707 226.353 11.6493 225.775 12.116C225.196 12.564 224.571 12.928 223.899 13.208L229.639 22H225.607L220.819 14.104H217.907V22H214.323V2.008H220.007ZM219.783 5.004H217.907V11.164H219.895C220.884 11.164 221.687 11.0427 222.303 10.8C222.919 10.5573 223.367 10.2027 223.647 9.736C223.945 9.26933 224.095 8.69067 224.095 8C224.095 7.272 223.936 6.69333 223.619 6.264C223.301 5.816 222.825 5.49867 222.191 5.312C221.575 5.10667 220.772 5.004 219.783 5.004Z" fill="#19213D"/>
<path d="M235.952 22H232.424V2.008H243.764V5.004H235.952V10.884H243.232V13.88H235.952V22ZM254.267 22H245.867V19.956L248.275 19.06V4.976L245.867 4.052V2.008H254.267V4.052L251.859 4.976V19.06L254.267 19.956V22ZM265.022 22H261.438V5.032H255.698V2.008H270.762V5.032H265.022V22Z" fill="#4049F4"/>
</svg>
